<svg width="124" height="18" viewBox="0 0 124 18" fill="none" xmlns="http://www.w3.org/2000/svg">
<path d="M3.6 12.04V17H0.18V2.86H5.72C7.4 2.86 8.68 3.28 9.56 4.12C10.44 4.94667 10.88 6.06667 10.88 7.48C10.88 8.36 10.68 9.14667 10.28 9.84C9.89333 10.52 9.31333 11.06 8.54 11.46C7.76667 11.8467 6.82667 12.04 5.72 12.04H3.6ZM5.34 9.3C6.71333 9.3 7.4 8.69333 7.4 7.48C7.4 6.24 6.71333 5.62 5.34 5.62H3.6V9.3H5.34ZM19.8228 17L16.7628 11.66H15.9828V17H12.5628V2.86H18.4028C19.5228 2.86 20.4695 3.05333 21.2428 3.44C22.0161 3.82667 22.5961 4.36 22.9828 5.04C23.3695 5.70667 23.5628 6.47333 23.5628 7.34C23.5628 8.36667 23.2761 9.24 22.7028 9.96C22.1428 10.68 21.3228 11.1733 20.2428 11.44L23.6028 17H19.8228ZM15.9828 9.32H18.1028C18.7828 9.32 19.2828 9.17333 19.6028 8.88C19.9228 8.57333 20.0828 8.12667 20.0828 7.54C20.0828 6.98 19.9161 6.54 19.5828 6.22C19.2628 5.9 18.7695 5.74 18.1028 5.74H15.9828V9.32ZM31.9977 2.64C33.331 2.64 34.5377 2.95333 35.6177 3.58C36.711 4.19333 37.571 5.05333 38.1977 6.16C38.8243 7.25333 39.1377 8.49333 39.1377 9.88C39.1377 11.2667 38.8177 12.5133 38.1777 13.62C37.551 14.7267 36.691 15.5933 35.5977 16.22C34.5177 16.8333 33.3177 17.14 31.9977 17.14C30.6777 17.14 29.471 16.8333 28.3777 16.22C27.2977 15.5933 26.4377 14.7267 25.7977 13.62C25.171 12.5133 24.8577 11.2667 24.8577 9.88C24.8577 8.49333 25.171 7.25333 25.7977 6.16C26.4377 5.05333 27.2977 4.19333 28.3777 3.58C29.471 2.95333 30.6777 2.64 31.9977 2.64ZM31.9977 5.82C30.8777 5.82 29.9843 6.18667 29.3177 6.92C28.6643 7.64 28.3377 8.62667 28.3377 9.88C28.3377 11.12 28.6643 12.1067 29.3177 12.84C29.9843 13.5733 30.8777 13.94 31.9977 13.94C33.1043 13.94 33.991 13.5733 34.6577 12.84C35.3243 12.1067 35.6577 11.12 35.6577 9.88C35.6577 8.64 35.3243 7.65333 34.6577 6.92C34.0043 6.18667 33.1177 5.82 31.9977 5.82ZM44.4789 12.04V17H41.0589V2.86H46.5989C48.2789 2.86 49.5589 3.28 50.4389 4.12C51.3189 4.94667 51.7589 6.06667 51.7589 7.48C51.7589 8.36 51.5589 9.14667 51.1589 9.84C50.7722 10.52 50.1922 11.06 49.4189 11.46C48.6456 11.8467 47.7056 12.04 46.5989 12.04H44.4789ZM46.2189 9.3C47.5922 9.3 48.2789 8.69333 48.2789 7.48C48.2789 6.24 47.5922 5.62 46.2189 5.62H44.4789V9.3H46.2189ZM56.8617 5.58V8.54H61.6417V11.12H56.8617V14.26H62.2417V17H53.4417V2.86H62.2417V5.58H56.8617ZM71.4439 17L68.3839 11.66H67.6039V17H64.1839V2.86H70.0239C71.1439 2.86 72.0906 3.05333 72.8639 3.44C73.6372 3.82667 74.2172 4.36 74.6039 5.04C74.9906 5.70667 75.1839 6.47333 75.1839 7.34C75.1839 8.36667 74.8972 9.24 74.3239 9.96C73.7639 10.68 72.9439 11.1733 71.8639 11.44L75.2239 17H71.4439ZM67.6039 9.32H69.7239C70.4039 9.32 70.9039 9.17333 71.2239 8.88C71.5439 8.57333 71.7039 8.12667 71.7039 7.54C71.7039 6.98 71.5372 6.54 71.2039 6.22C70.8839 5.9 70.3906 5.74 69.7239 5.74H67.6039V9.32ZM87.0588 2.86V5.58H83.2188V17H79.7788V5.58H75.9788V2.86H87.0588ZM100.72 2.86L95.8203 12.3V17H92.3803V12.3L87.4803 2.86H91.4003L94.1203 8.62L96.8403 2.86H100.72ZM104.975 13.58V17H101.435V13.58H104.975ZM106.442 2.7C106.442 2.18 106.629 1.75333 107.002 1.42C107.375 1.07333 107.869 0.899999 108.482 0.899999C109.095 0.899999 109.589 1.07333 109.962 1.42C110.335 1.75333 110.522 2.18 110.522 2.7C110.522 3.20667 110.335 3.63333 109.962 3.98C109.589 4.31333 109.095 4.48 108.482 4.48C107.869 4.48 107.375 4.31333 107.002 3.98C106.629 3.63333 106.442 3.20667 106.442 2.7ZM110.182 5.84V17H106.762V5.84H110.182ZM117.763 5.7C118.87 5.7 119.857 5.93333 120.723 6.4C121.603 6.85333 122.29 7.51333 122.783 8.38C123.29 9.24667 123.543 10.26 123.543 11.42C123.543 12.58 123.29 13.5933 122.783 14.46C122.29 15.3267 121.603 15.9933 120.723 16.46C119.857 16.9133 118.87 17.14 117.763 17.14C116.657 17.14 115.663 16.9133 114.783 16.46C113.903 15.9933 113.21 15.3267 112.703 14.46C112.21 13.5933 111.963 12.58 111.963 11.42C111.963 10.26 112.21 9.24667 112.703 8.38C113.21 7.51333 113.903 6.85333 114.783 6.4C115.663 5.93333 116.657 5.7 117.763 5.7ZM117.763 8.66C117.11 8.66 116.557 8.9 116.103 9.38C115.663 9.84667 115.443 10.5267 115.443 11.42C115.443 12.3133 115.663 12.9933 116.103 13.46C116.557 13.9267 117.11 14.16 117.763 14.16C118.417 14.16 118.963 13.9267 119.403 13.46C119.843 12.9933 120.063 12.3133 120.063 11.42C120.063 10.5267 119.843 9.84667 119.403 9.38C118.963 8.9 118.417 8.66 117.763 8.66Z" fill="black"/>
</svg>
